<svg width="108" height="108" viewBox="0 0 108 108" fill="none" xmlns="http://www.w3.org/2000/svg">
<g clip-path="url(#clip0_319_3529)">
<mask id="mask0_319_3529" style="mask-type:luminance" maskUnits="userSpaceOnUse" x="0" y="0" width="108" height="108">
<path fill-rule="evenodd" clip-rule="evenodd" d="M54 0C10.8 0 0 10.8 0 54C0 97.2 10.8 108 54 108C97.2 108 108 97.2 108 54C108 10.8 97.2 0 54 0Z" fill="white"/>
</mask>
<g mask="url(#mask0_319_3529)">
<rect width="108" height="108" stroke="black" stroke-width="0.25" stroke-linejoin="bevel"/>
<rect width="108" height="108" fill="white"/>
<path d="M54 90C73.8823 90 90 73.8823 90 54C90 34.1178 73.8823 18 54 18C34.1178 18 18 34.1178 18 54C18 73.8823 34.1178 90 54 90Z" fill="white"/>
<path opacity="0.3" d="M80.1891 54.0145C80.1891 68.4509 68.4436 80.1963 54.0073 80.1963C39.5709 80.1963 27.8254 68.4509 27.8254 54.0145C27.8254 39.5782 39.5636 27.8327 54.0073 27.8327C68.4509 27.8327 80.1891 39.5636 80.1891 54.0145Z" fill="#1BB49A"/>
<path d="M53.9999 32.7273C65.7308 32.7273 75.2727 42.2691 75.2727 54C75.2727 65.7309 65.7308 75.2727 53.9999 75.2727C42.269 75.2727 32.7272 65.7309 32.7272 54C32.7272 42.2691 42.269 32.7273 53.9999 32.7273ZM53.9999 27.8182C39.5345 27.8182 27.8181 39.5345 27.8181 54C27.8181 68.4654 39.5345 80.1818 53.9999 80.1818C68.4654 80.1818 80.1817 68.4654 80.1817 54C80.1817 39.5345 68.4654 27.8182 53.9999 27.8182Z" fill="#1BB49A"/>
<path d="M63.8401 55.6436C63.8474 61.069 59.4546 65.469 54.0292 65.469C48.6037 65.469 44.2183 61.0763 44.2183 55.6581V44.2181H49.1274V55.6654C49.1274 58.3709 51.3164 60.56 54.0146 60.56C55.3674 60.56 56.5892 60.0145 57.4764 59.1272C58.3637 58.24 58.9092 57.0181 58.9092 55.6654V44.2181H63.8183L63.8401 55.6436Z" fill="#1BB49A"/>
</g>
</g>
<defs>
<clipPath id="clip0_319_3529">
<rect width="108" height="108" fill="white"/>
</clipPath>
</defs>
</svg>
